<svg width="254" height="51" viewBox="0 0 254 51" fill="none" xmlns="http://www.w3.org/2000/svg">
<g id="logos:nextjs" clip-path="url(#clip0_466_230)">
<path id="Vector" d="M213.094 0.0210865V8.09282H195.543V50.5587H186.767V8.09331H168.851V0.0210865H213.094ZM215.067 45.7445C215.685 45.7445 216.225 45.9642 216.683 46.4046C217.148 46.8445 217.379 47.3716 217.385 47.9856C217.384 48.3885 217.271 48.7833 217.058 49.1267C216.849 49.4657 216.556 49.7467 216.208 49.9432C215.863 50.1469 215.468 50.253 215.067 50.2502C214.424 50.2502 213.877 50.03 213.42 49.5901C212.962 49.1498 212.735 48.6167 212.741 47.9856C212.735 47.3716 212.962 46.8445 213.42 46.4046C213.877 45.9642 214.424 45.7445 215.067 45.7445ZM41.1341 50.5587L8.7759 10.8022V50.5381H0V0H10.9691L51.8502 50.1806L51.8507 8.09331L51.8473 0.0210865H96.0889V8.09282H60.6261V21.0782H89.1456V29.1504H60.6261V42.4869H96.0894V50.5587H41.1341ZM124.214 29.0734L129.966 36.1413L118.181 50.6185H106.664L124.214 29.0734ZM118.181 0.0421731L133.029 18.2698L147.83 0.0980769L159.315 0.0809135L138.779 25.3284L159.348 50.5797H147.83L106.697 0.0421731H118.181ZM230.044 28.9602H233.933V43.7698C233.927 45.1306 233.629 46.2943 233.047 47.2736C232.458 48.2519 231.643 48.9992 230.597 49.5264C229.556 50.0472 228.338 50.3139 226.952 50.3139C225.685 50.3139 224.55 50.0884 223.539 49.648C222.528 49.2076 221.726 48.5476 221.137 47.6786C220.542 46.8102 220.251 45.7269 220.251 44.4298H224.146C224.152 44.9972 224.283 45.4891 224.532 45.901C224.778 46.3075 225.137 46.6351 225.567 46.8445C226.012 47.0652 226.524 47.175 227.1 47.175C227.725 47.175 228.26 47.0475 228.694 46.7866C229.128 46.5316 229.461 46.1496 229.693 45.6401C229.919 45.136 230.038 44.5107 230.044 43.7693V28.9602ZM249.933 34.7516C249.838 33.8542 249.422 33.1529 248.696 32.6552C247.965 32.1511 247.019 31.9025 245.86 31.9025C245.046 31.9025 244.344 32.0241 243.761 32.2614C243.179 32.5047 242.727 32.8288 242.417 33.2402C242.109 33.6512 241.954 34.1205 241.941 34.6476C241.941 35.0875 242.049 35.47 242.256 35.7883C242.472 36.1219 242.763 36.4016 243.107 36.6052C243.48 36.8372 243.879 37.0256 244.296 37.1667C244.736 37.3173 245.176 37.4448 245.616 37.5492L247.644 38.0416C248.459 38.2269 249.249 38.4756 250.004 38.7943C250.759 39.1072 251.443 39.5069 252.043 39.9874C252.644 40.468 253.12 41.0471 253.471 41.7249C253.821 42.4026 254 43.196 254 44.1111C254 45.3444 253.679 46.4277 253.031 47.3658C252.383 48.2985 251.449 49.0282 250.224 49.5553C249.005 50.0766 247.53 50.3429 245.795 50.3429C244.118 50.3429 242.655 50.0879 241.424 49.5784C240.188 49.0747 239.224 48.3328 238.528 47.3599C237.833 46.387 237.458 45.1997 237.405 43.8041H241.258C241.311 44.5338 241.55 45.1419 241.954 45.6342C242.364 46.1207 242.899 46.4796 243.553 46.7229C244.213 46.9607 244.95 47.0823 245.765 47.0823C246.615 47.0823 247.364 46.9548 248.012 46.7057C248.655 46.4566 249.16 46.1094 249.523 45.6573C249.891 45.211 250.076 44.6843 250.082 44.0821C250.076 43.5319 249.909 43.0744 249.588 42.715C249.261 42.356 248.809 42.0549 248.232 41.8117C247.65 41.5684 246.972 41.3482 246.199 41.1575L243.737 40.5435C241.959 40.0973 240.55 39.4201 239.521 38.5104C238.487 37.6012 237.976 36.3968 237.976 34.885C237.976 33.6458 238.32 32.5566 239.016 31.6239C239.706 30.6922 240.652 29.9679 241.847 29.4525C243.047 28.9312 244.404 28.6762 245.913 28.6762C247.448 28.6762 248.791 28.9312 249.951 29.4525C251.11 29.9679 252.02 30.6858 252.679 31.6009C253.34 32.5164 253.685 33.5644 253.703 34.7516H249.933Z" fill="black"/>
</g>
<defs>
<clipPath id="clip0_466_230">
<rect width="254" height="51" fill="white"/>
</clipPath>
</defs>
</svg>
