<svg width="80" height="80" viewBox="0 0 80 80" fill="none" xmlns="http://www.w3.org/2000/svg">
<g id="logos:visual-studio-code" clip-path="url(#clip0_466_241)">
<g id="Mask group">
<mask id="mask0_466_241" style="mask-type:luminance" maskUnits="userSpaceOnUse" x="0" y="0" width="80" height="80">
<g id="Group">
<path id="Vector" d="M56.5088 79.5606C57.1429 79.8098 57.821 79.9248 58.5011 79.8985C59.1812 79.8722 59.8487 79.7051 60.4619 79.4076L76.8685 71.451C77.7134 71.041 78.4264 70.3988 78.9253 69.5985C79.4243 68.7982 79.6889 67.8721 79.6888 66.9269V12.9754C79.6889 12.0303 79.4242 11.1043 78.9253 10.304C78.4264 9.50371 77.7134 8.86164 76.8685 8.45165L60.4622 0.494796C59.5352 0.0451904 58.4924 -0.102845 57.4781 0.0711784C56.4639 0.245202 55.5285 0.732679 54.8013 1.46613L23.3928 30.3464L9.71159 19.8797C9.09445 19.4075 8.3328 19.168 7.55878 19.2027C6.78475 19.2374 6.0472 19.5441 5.47409 20.0696L1.08627 24.0926C-0.360602 25.4189 -0.362165 27.7131 1.08252 29.0416L12.9472 39.9512L1.08252 50.8605C-0.362165 52.1893 -0.360602 54.4831 1.08627 55.8098L5.47409 59.8324C6.04716 60.358 6.78469 60.6647 7.55872 60.6995C8.33275 60.7342 9.09442 60.4948 9.71159 60.0227L23.3928 49.5556L54.8013 78.4359C55.2869 78.9261 55.8684 79.3092 56.5088 79.5606ZM59.7788 21.7184L35.9469 39.9512L59.7788 58.1836V21.7184Z" fill="#0065A9"/>
</g>
</mask>
<g mask="url(#mask0_466_241)">
<path id="Vector_2" d="M76.9172 8.4641L60.4979 0.49623C59.5705 0.0462616 58.5274 -0.10209 57.5128 0.0717054C56.4981 0.2455 55.5622 0.732848 54.8344 1.46631L1.08317 50.8606C-0.362455 52.1895 -0.36058 54.4833 1.08692 55.8099L5.47754 59.8326C6.05113 60.3583 6.78913 60.665 7.5636 60.6998C8.33808 60.7345 9.1002 60.495 9.71786 60.0228L74.4466 10.5312C76.6182 8.87103 79.7372 10.432 79.7372 13.1791V12.9869C79.7372 12.042 79.4725 11.1162 78.9737 10.3161C78.4748 9.51597 77.762 8.87404 76.9172 8.4641Z" fill="#0065A9"/>
</g>
</g>
<g id="Mask group_2">
<mask id="mask1_466_241" style="mask-type:luminance" maskUnits="userSpaceOnUse" x="0" y="0" width="80" height="80">
<g id="Group_2">
<path id="Vector_3" d="M56.5088 79.5606C57.1429 79.8098 57.821 79.9248 58.5011 79.8985C59.1812 79.8722 59.8487 79.7051 60.4619 79.4076L76.8685 71.451C77.7134 71.041 78.4264 70.3988 78.9253 69.5985C79.4243 68.7982 79.6889 67.8721 79.6888 66.9269V12.9754C79.6889 12.0303 79.4242 11.1043 78.9253 10.304C78.4264 9.50371 77.7134 8.86164 76.8685 8.45165L60.4622 0.494796C59.5352 0.0451904 58.4924 -0.102845 57.4781 0.0711784C56.4639 0.245202 55.5285 0.732679 54.8013 1.46613L23.3928 30.3464L9.71159 19.8797C9.09445 19.4075 8.3328 19.168 7.55878 19.2027C6.78475 19.2374 6.0472 19.5441 5.47409 20.0696L1.08627 24.0926C-0.360602 25.4189 -0.362165 27.7131 1.08252 29.0416L12.9472 39.9512L1.08252 50.8605C-0.362165 52.1893 -0.360602 54.4831 1.08627 55.8098L5.47409 59.8324C6.04716 60.358 6.78469 60.6647 7.55872 60.6995C8.33275 60.7342 9.09442 60.4948 9.71159 60.0227L23.3928 49.5556L54.8013 78.4359C55.2869 78.9261 55.8684 79.3092 56.5088 79.5606ZM59.7788 21.7184L35.9469 39.9512L59.7788 58.1836V21.7184Z" fill="#007ACC"/>
</g>
</mask>
<g mask="url(#mask1_466_241)">
<path id="Vector_4" d="M76.9172 71.4378L60.4978 79.4057C59.5705 79.8555 58.5273 80.0038 57.5127 79.8301C56.4981 79.6563 55.5622 79.169 54.8344 78.4356L1.08311 29.0413C-0.362516 27.7128 -0.360641 25.4186 1.08686 24.0923L5.47748 20.0693C6.05111 19.5437 6.78912 19.237 7.5636 19.2023C8.33807 19.1676 9.10018 19.4071 9.7178 19.8794L74.4465 69.3707C76.6181 71.0309 79.7372 69.4699 79.7372 66.7225V66.915C79.7371 67.8599 79.4724 68.7857 78.9736 69.5858C78.4747 70.3859 77.7619 71.0278 76.9172 71.4378Z" fill="#007ACC"/>
</g>
</g>
<g id="Mask group_3">
<mask id="mask2_466_241" style="mask-type:luminance" maskUnits="userSpaceOnUse" x="0" y="0" width="80" height="80">
<g id="Group_3">
<path id="Vector_5" d="M56.5088 79.5606C57.1429 79.8098 57.821 79.9248 58.5011 79.8985C59.1812 79.8722 59.8487 79.7051 60.4619 79.4076L76.8685 71.451C77.7134 71.041 78.4264 70.3988 78.9253 69.5985C79.4243 68.7982 79.6889 67.8721 79.6888 66.9269V12.9754C79.6889 12.0303 79.4242 11.1043 78.9253 10.304C78.4264 9.50371 77.7134 8.86164 76.8685 8.45165L60.4622 0.494796C59.5352 0.0451904 58.4924 -0.102845 57.4781 0.0711784C56.4639 0.245202 55.5285 0.732679 54.8013 1.46613L23.3928 30.3464L9.71159 19.8797C9.09445 19.4075 8.3328 19.168 7.55878 19.2027C6.78475 19.2374 6.0472 19.5441 5.47409 20.0696L1.08627 24.0926C-0.360602 25.4189 -0.362165 27.7131 1.08252 29.0416L12.9472 39.9512L1.08252 50.8605C-0.362165 52.1893 -0.360602 54.4831 1.08627 55.8098L5.47409 59.8324C6.04716 60.358 6.78469 60.6647 7.55872 60.6995C8.33275 60.7342 9.09442 60.4948 9.71159 60.0227L23.3928 49.5556L54.8013 78.4359C55.2869 78.9261 55.8684 79.3092 56.5088 79.5606ZM59.7788 21.7184L35.9469 39.9512L59.7788 58.1836V21.7184Z" fill="#1F9CF0"/>
</g>
</mask>
<g mask="url(#mask2_466_241)">
<path id="Vector_6" d="M60.4463 79.4122C59.5187 79.8618 58.4755 80.0099 57.4608 79.836C56.4461 79.662 55.5101 79.1746 54.7822 78.4411C56.62 80.2931 59.7629 78.9813 59.7629 76.3615V3.55042C59.7629 0.930582 56.62 -0.381229 54.7822 1.47105C55.5101 0.737535 56.446 0.250064 57.4607 0.0760516C58.4754 -0.0979603 59.5187 0.0500854 60.4463 0.499716L76.8629 8.45657C77.7081 8.86627 78.4215 9.50823 78.9207 10.3085C79.4199 11.1089 79.6848 12.035 79.6847 12.9803V66.9322C79.6847 68.8613 78.5879 70.62 76.8629 71.4559L60.4463 79.4122Z" fill="#1F9CF0"/>
</g>
</g>
<g id="Mask group_4">
<mask id="mask3_466_241" style="mask-type:luminance" maskUnits="userSpaceOnUse" x="0" y="0" width="80" height="80">
<g id="Group_4">
<path id="Vector_7" d="M56.5088 79.5606C57.1429 79.8098 57.821 79.9248 58.5011 79.8985C59.1812 79.8722 59.8487 79.7051 60.4619 79.4076L76.8685 71.451C77.7134 71.041 78.4264 70.3988 78.9253 69.5985C79.4243 68.7982 79.6889 67.8721 79.6888 66.9269V12.9754C79.6889 12.0303 79.4242 11.1043 78.9253 10.304C78.4264 9.50371 77.7134 8.86164 76.8685 8.45165L60.4622 0.494796C59.5352 0.0451904 58.4924 -0.102845 57.4781 0.0711784C56.4639 0.245202 55.5285 0.732679 54.8013 1.46613L23.3928 30.3464L9.71159 19.8797C9.09445 19.4075 8.3328 19.168 7.55878 19.2027C6.78475 19.2374 6.0472 19.5441 5.47409 20.0696L1.08627 24.0926C-0.360602 25.4189 -0.362165 27.7131 1.08252 29.0416L12.9472 39.9512L1.08252 50.8605C-0.362165 52.1893 -0.360602 54.4831 1.08627 55.8098L5.47409 59.8324C6.04716 60.358 6.78469 60.6647 7.55872 60.6995C8.33275 60.7342 9.09442 60.4948 9.71159 60.0227L23.3928 49.5556L54.8013 78.4359C55.2869 78.9261 55.8684 79.3092 56.5088 79.5606ZM59.7788 21.7184L35.9469 39.9512L59.7788 58.1836V21.7184Z" fill="url(#paint0_linear_466_241)" fill-opacity="0.25"/>
</g>
</mask>
<g mask="url(#mask3_466_241)">
<path id="Vector_8" d="M56.5087 79.5606C57.1428 79.8098 57.821 79.9247 58.5011 79.8984C59.1811 79.8721 59.8486 79.705 60.4618 79.4075L76.8681 71.4507C77.7131 71.0408 78.4262 70.3987 78.9252 69.5984C79.4241 68.7981 79.6888 67.8721 79.6887 66.9269V12.9754C79.6888 12.0302 79.4242 11.1042 78.9252 10.304C78.4263 9.50368 77.7134 8.8616 76.8684 8.45161L60.4615 0.494449C59.5345 0.0449162 58.4918 -0.10308 57.4776 0.0709419C56.4635 0.244964 55.5281 0.7324 54.8009 1.46579L23.3928 30.3464L9.71152 19.8796C9.09439 19.4075 8.33274 19.168 7.55872 19.2027C6.78469 19.2374 6.04714 19.5441 5.47402 20.0696L1.08621 24.0926C-0.360663 25.4189 -0.362226 27.713 1.08246 29.0415L12.9471 39.9511L1.08246 50.8604C-0.362226 52.1893 -0.360663 54.4831 1.08621 55.8097L5.47402 59.8324C6.0471 60.3579 6.78463 60.6647 7.55866 60.6994C8.33269 60.7342 9.09436 60.4947 9.71152 60.0226L23.3928 49.5556L54.8009 78.4359C55.2866 78.9261 55.8682 79.3091 56.5087 79.5606ZM59.7787 21.7181L35.9468 39.9511L59.7787 58.1836V21.7181Z" fill="url(#paint1_linear_466_241)" fill-opacity="0.25"/>
</g>
</g>
</g>
<defs>
<linearGradient id="paint0_linear_466_241" x1="3984.44" y1="0.000244141" x2="3984.44" y2="7990.19" gradientUnits="userSpaceOnUse">
<stop stop-color="white"/>
<stop offset="1" stop-color="white" stop-opacity="0"/>
</linearGradient>
<linearGradient id="paint1_linear_466_241" x1="3984.44" y1="0" x2="3984.44" y2="7990.21" gradientUnits="userSpaceOnUse">
<stop stop-color="white"/>
<stop offset="1" stop-color="white" stop-opacity="0"/>
</linearGradient>
<clipPath id="clip0_466_241">
<rect width="80" height="80" fill="white"/>
</clipPath>
</defs>
</svg>
